<svg xmlns="http://www.w3.org/2000/svg" width="120" height="98" fill="none" viewBox="0 0 120 98"><g filter="url(#filter0_dd)"><path fill="#F3F1F0" d="M20 19C20 16.791 21.791 15 24 15H60V73H24C21.791 73 20 71.209 20 69V19Z"/><path fill="#12100C" fill-opacity=".7" d="M100 19C100 16.791 98.209 15 96 15H60V73H96C98.209 73 100 71.209 100 69V19Z"/><path fill="#DADADA" d="M20 19C20 16.791 21.791 15 24 15H60V25H20V19Z"/><path fill="#12100C" d="M100 19C100 16.791 98.209 15 96 15H60V25H100V19Z"/><path fill="#999795" d="M27 22C28.1046 22 29 21.1046 29 20C29 18.8954 28.1046 18 27 18C25.8954 18 25 18.8954 25 20C25 21.1046 25.8954 22 27 22Z"/><path fill="#C4C4C4" d="M50 34H29V38H50V34Z"/><path fill="#C4C4C4" d="M60 44H38V48H60V44Z"/><path fill="#C4C4C4" d="M60 54H38V58H60V54Z"/><path fill="#12100C" d="M82 44H60V48H82V44Z"/><path fill="#12100C" d="M82 54H60V58H82V54Z"/></g><defs><filter id="filter0_dd" width="120" height="98" x="0" y="0" color-interpolation-filters="sRGB" filterUnits="userSpaceOnUse"><feFlood flood-opacity="0" result="BackgroundImageFix"/><feColorMatrix in="SourceAlpha" type="matrix" values="0 0 0 0 0 0 0 0 0 0 0 0 0 0 0 0 0 0 127 0"/><feOffset dy="5"/><feGaussianBlur stdDeviation="10"/><feColorMatrix type="matrix" values="0 0 0 0 0 0 0 0 0 0 0 0 0 0 0 0 0 0 0.12 0"/><feBlend in2="BackgroundImageFix" mode="normal" result="effect1_dropShadow"/><feColorMatrix in="SourceAlpha" type="matrix" values="0 0 0 0 0 0 0 0 0 0 0 0 0 0 0 0 0 0 127 0"/><feOffset dy="2"/><feGaussianBlur stdDeviation="2.5"/><feColorMatrix type="matrix" values="0 0 0 0 0 0 0 0 0 0 0 0 0 0 0 0 0 0 0.08 0"/><feBlend in2="effect1_dropShadow" mode="normal" result="effect2_dropShadow"/><feBlend in="SourceGraphic" in2="effect2_dropShadow" mode="normal" result="shape"/></filter></defs></svg>